<svg width="100" height="100" viewBox="0 0 100 100" fill="none"
  xmlns="http://www.w3.org/2000/svg">
  <path fill-rule="evenodd" clip-rule="evenodd" d="M39.8849 47.3793L57.2387 42.9675C32.3106 40.1861 44.1035 41.7207 39.8849 47.3793Z" fill="#fff"/>
  <path fill-rule="evenodd" clip-rule="evenodd" d="M2.9722 73.9463C1.91755 76.0563 0.958773 78.0704 0 80.0845C3.25983 81.5232 6.51965 82.9618 9.77948 84.3045C26.8456 88.3327 32.3106 100.993 57.7181 99.9378C51.1026 94.1832 46.2128 84.4004 44.4871 74.6177C75.3595 58.9844 98.466 69.7263 100 42.6798C79.7699 39.3229 59.5398 35.9661 39.3097 32.6093C35.4746 21.6756 31.6395 10.8378 27.9003 0C19.8466 11.0296 15.7239 24.2651 16.5868 39.0352C17.7373 57.6417 7.38255 59.1762 2.9722 73.9463V73.9463ZM32.2148 63.2044C48.2263 69.5345 48.8974 64.4512 65.6759 61.1903C79.1946 58.5049 94.2474 60.7108 91.8504 46.4202C76.5101 39.8025 50.4314 42.392 35.187 35.5825C32.3106 27.9097 29.4343 20.3328 26.558 12.6601C17.3538 26.471 26.7498 36.9252 22.5312 48.2425C18.4084 58.9844 9.39597 67.904 5.465 79.1254C17.4497 80.5641 21.1889 84.7841 30.2972 86.7982C34.6117 91.4978 35.954 90.7305 43.5283 92.4569C41.5149 86.5105 40.9396 83.2495 39.6932 77.399C36.3375 62.1494 34.1323 77.1113 32.2148 63.2044V63.2044Z" fill="#fff"/>
</svg>
