<svg width="352" height="261" viewBox="0 0 352 261" fill="none"
  xmlns="http://www.w3.org/2000/svg">
  <path id="shadow" d="M176.37 260.989C228.482 260.989 270.728 252.409 270.728 241.826C270.728 231.243 228.482 222.664 176.37 222.664C124.257 222.664 82.012 231.243 82.012 241.826C82.012 252.409 124.257 260.989 176.37 260.989Z" fill="#595959" />
  <path id="circle" fill-rule="evenodd" clip-rule="evenodd" d="M113.788 164.933C129.07 178.517 147.505 186.279 165.939 187.977C179.281 189.675 192.864 188.219 205.72 184.096C221.002 179.002 235.556 169.784 246.956 156.686C271.455 129.276 276.792 91.6784 264.178 59.6598C258.842 46.3188 250.352 33.7054 238.709 23.5176C207.903 -3.64964 164.242 -7.04555 130.282 12.1171C121.065 17.211 112.818 23.5176 105.541 31.7649C86.1356 53.8383 78.8586 82.7035 83.2248 109.871C86.6207 130.489 97.051 150.137 113.788 164.933Z" fill="#3B3736" />
</svg>

<svg width="352" height="260" viewBox="0 0 352 260" fill="none"
  xmlns="http://www.w3.org/2000/svg">
  <path id="circle" d="M176.37 259.989C228.482 259.989 270.728 251.409 270.728 240.826C270.728 230.243 228.482 221.663 176.37 221.663C124.257 221.663 82.0119 230.243 82.0119 240.826C82.0119 251.409 124.257 259.989 176.37 259.989Z" fill="#292929"/>
  <path id="shadow" fill-rule="evenodd" clip-rule="evenodd" d="M110.331 209.185C125.613 222.769 144.048 230.531 162.483 232.229C175.824 233.927 189.407 232.472 202.263 228.348C217.545 223.254 232.099 214.037 243.499 200.938C267.999 173.528 273.335 135.931 260.722 103.912C255.385 90.5711 246.895 77.9577 235.252 67.7699C204.447 40.6027 160.785 37.2067 126.826 56.3694C117.608 61.4633 109.361 67.7699 102.084 76.0172C82.6789 98.0906 75.4019 126.956 79.7681 154.123C83.164 174.741 93.5943 194.389 110.331 209.185Z" fill="#282829"/>
</svg>
