<svg width="353" height="261" viewBox="0 0 353 261" fill="none"
  xmlns="http://www.w3.org/2000/svg">
  <path d="M197.22 248.4C197.22 250.819 196.615 252.935 195.406 254.85C194.096 256.764 192.282 258.276 189.964 259.385C187.546 260.493 184.724 260.997 181.499 260.997C177.569 260.997 174.344 260.292 171.724 258.78C169.91 257.772 168.499 256.261 167.391 254.547C166.282 252.733 165.677 251.02 165.677 249.307C165.677 248.4 165.98 247.493 166.685 246.788C167.391 246.183 168.197 245.78 169.305 245.78C170.112 245.78 170.817 246.082 171.422 246.586C172.026 247.191 172.53 247.997 172.933 249.005C173.437 250.315 173.941 251.323 174.546 252.23C175.15 253.036 175.956 253.741 177.065 254.245C178.073 254.85 179.484 255.152 181.197 255.152C183.615 255.152 185.53 254.547 187.042 253.439C188.553 252.33 189.259 250.919 189.259 249.307C189.259 247.997 188.856 246.888 188.05 246.082C187.243 245.276 186.236 244.671 184.925 244.168C183.716 243.764 182.003 243.261 179.887 242.857C176.964 242.152 174.646 241.346 172.732 240.439C170.817 239.532 169.205 238.323 168.096 236.811C166.987 235.299 166.383 233.385 166.383 231.067C166.383 228.85 166.987 226.935 168.197 225.222C169.406 223.509 171.119 222.199 173.437 221.292C175.654 220.385 178.274 219.981 181.398 219.981C183.817 219.981 185.933 220.284 187.646 220.888C189.46 221.493 190.972 222.299 192.081 223.307C193.29 224.214 194.096 225.323 194.701 226.431C195.205 227.54 195.507 228.648 195.507 229.656C195.507 230.563 195.104 231.47 194.499 232.276C193.794 232.982 192.987 233.385 191.98 233.385C190.972 233.385 190.367 233.183 189.863 232.679C189.36 232.276 188.856 231.47 188.251 230.462C187.546 228.95 186.739 227.741 185.631 226.935C184.623 226.028 183.011 225.625 180.794 225.625C178.677 225.625 177.065 226.129 175.755 227.036C174.546 227.943 173.84 229.051 173.84 230.361C173.84 231.067 174.042 231.772 174.546 232.377C174.949 232.981 175.553 233.485 176.259 233.888C177.065 234.292 177.871 234.594 178.577 234.896C179.383 235.098 180.693 235.4 182.406 235.904C184.724 236.408 186.739 237.013 188.553 237.617C190.367 238.222 191.879 239.028 193.189 239.935C194.398 240.842 195.406 241.95 196.112 243.361C196.817 244.772 197.22 246.385 197.22 248.4ZM157.212 226.834H141.391V237.013H154.693C155.902 237.013 156.809 237.214 157.414 237.819C158.019 238.323 158.321 239.129 158.321 240.036C158.321 240.943 158.019 241.648 157.414 242.253C156.809 242.757 155.902 243.059 154.693 243.059H141.391V256.059C141.391 257.772 140.987 258.982 140.282 259.788C139.577 260.594 138.569 260.997 137.36 260.997C136.251 260.997 135.243 260.594 134.538 259.788C133.732 258.982 133.329 257.772 133.329 256.059V225.524C133.329 224.416 133.53 223.408 133.933 222.702C134.236 221.997 134.739 221.392 135.445 221.09C136.251 220.788 137.158 220.586 138.267 220.586H157.212C158.522 220.586 159.53 220.888 160.135 221.493C160.739 221.997 161.042 222.803 161.042 223.71C161.042 224.617 160.739 225.423 160.135 225.927C159.53 226.532 158.522 226.834 157.212 226.834ZM107.933 224.819V253.741H124.259C125.468 253.741 126.476 254.044 127.181 254.648C127.887 255.354 128.29 256.059 128.29 257.067C128.29 258.075 127.887 258.78 127.181 259.385C126.577 259.989 125.569 260.292 124.259 260.292H104.809C102.995 260.292 101.786 259.989 100.98 259.183C100.274 258.377 99.8712 257.168 99.8712 255.354V224.819C99.8712 223.206 100.274 221.997 100.98 221.191C101.685 220.385 102.693 219.981 103.801 219.981C105.011 219.981 106.019 220.385 106.825 221.191C107.53 221.997 107.933 223.206 107.933 224.819ZM73.569 219.981C77.7008 219.981 81.2279 220.788 84.15 222.4C87.0725 224.113 89.3903 226.532 90.9019 229.555C92.4136 232.679 93.119 236.307 93.119 240.439C93.119 243.462 92.7159 246.284 91.9097 248.803C91.1035 251.323 89.7934 253.439 88.181 255.354C86.4678 257.168 84.4523 258.578 82.0337 259.485C79.6151 260.493 76.8942 260.997 73.7701 260.997C70.6461 260.997 67.8244 260.493 65.4058 259.485C62.8864 258.478 60.8709 257.067 59.2585 255.253C57.6461 253.439 56.336 251.222 55.5298 248.702C54.7236 246.082 54.2198 243.361 54.2198 240.338C54.2198 237.315 54.7236 234.493 55.5298 231.974C56.4368 229.454 57.7469 227.237 59.3593 225.423C61.0725 223.71 63.088 222.299 65.4058 221.392C67.8244 220.385 70.5453 219.981 73.5686 219.981H73.569ZM84.957 240.338C84.957 237.416 84.5539 234.896 83.5461 232.78C82.6392 230.664 81.3291 229.051 79.6159 227.943C77.802 226.834 75.7865 226.33 73.5694 226.33C71.957 226.33 70.4454 226.633 69.1353 227.237C67.7244 227.842 66.6159 228.749 65.6082 229.857C64.6004 231.067 63.7942 232.478 63.2903 234.292C62.6857 236.106 62.3833 238.121 62.3833 240.338C62.3833 242.656 62.6857 244.671 63.2903 246.485C63.7942 248.299 64.6004 249.811 65.7089 251.02C66.7167 252.23 67.926 253.137 69.2361 253.741C70.6469 254.346 72.0578 254.648 73.6702 254.648C75.7864 254.648 77.6004 254.144 79.3136 253.036C81.0268 252.028 82.4376 250.416 83.4454 248.299C84.4531 246.183 84.957 243.462 84.957 240.338ZM31.546 254.044L25.0964 230.261L18.546 254.044C18.0422 255.857 17.6391 257.168 17.3367 257.974C17.1352 258.78 16.5305 259.485 15.8251 260.09C15.1197 260.695 14.1119 260.997 12.9026 260.997C11.8949 260.997 11.0887 260.795 10.3832 260.392C9.7786 260.09 9.27471 259.586 8.87161 258.881C8.46851 258.175 8.16618 257.369 7.86381 256.462C7.66225 255.555 7.35993 254.648 7.15838 253.842L0.607976 227.137C0.204876 225.625 0.00332642 224.416 0.00332642 223.609C0.00332642 222.602 0.406426 221.695 1.11183 220.989C1.81725 220.284 2.72423 219.981 3.73203 219.981C5.24363 219.981 6.25143 220.385 6.75533 221.392C7.2592 222.299 7.66231 223.609 8.06543 225.423L13.2049 248.602L19.0499 226.935C19.5538 225.222 19.8561 224.013 20.2592 223.106C20.5615 222.299 21.1662 221.493 21.9724 220.888C22.6778 220.284 23.7863 219.981 25.0964 219.981C26.4065 219.981 27.515 220.284 28.2205 220.888C29.0267 221.594 29.5305 222.299 29.8329 223.106C30.1352 223.912 30.4375 225.121 30.9414 226.935L36.8871 248.602L42.0267 225.423C42.329 224.214 42.5305 223.307 42.7321 222.602C43.0344 221.896 43.3367 221.292 43.9414 220.788C44.4453 220.183 45.2515 219.981 46.36 219.981C47.3677 219.981 48.2747 220.284 48.9801 220.989C49.6856 221.695 50.0887 222.602 50.0887 223.609C50.0887 224.315 49.8871 225.524 49.484 227.137L42.9336 253.842C42.4298 255.656 42.0267 256.966 41.7243 257.873C41.422 258.679 40.9181 259.385 40.2127 260.09C39.5073 260.695 38.4995 260.997 37.1894 260.997C35.9801 260.997 34.9724 260.695 34.267 260.09C33.5615 259.485 33.0577 258.78 32.7553 257.974C32.453 257.268 32.0499 255.958 31.546 254.044H31.546ZM219.496 244.873H212.039V256.059C212.039 257.671 211.737 258.881 210.93 259.788C210.225 260.594 209.217 260.997 208.109 260.997C206.899 260.997 205.892 260.594 205.186 259.788C204.38 258.982 204.078 257.772 204.078 256.16V225.524C204.078 223.811 204.481 222.501 205.287 221.795C206.093 220.989 207.403 220.586 209.117 220.586H219.496C222.52 220.586 224.837 220.888 226.551 221.292C228.163 221.795 229.574 222.501 230.682 223.609C231.892 224.617 232.799 225.927 233.403 227.439C234.008 228.95 234.31 230.664 234.31 232.578C234.31 236.609 233.101 239.633 230.582 241.749C228.062 243.764 224.434 244.873 219.496 244.873ZM217.481 226.633H212.039V238.826H217.481C219.396 238.826 221.008 238.625 222.217 238.222C223.527 237.819 224.535 237.113 225.14 236.206C225.845 235.4 226.148 234.191 226.148 232.679C226.148 230.966 225.644 229.555 224.636 228.447C223.527 227.237 221.109 226.633 217.481 226.633ZM258.496 219.981C262.628 219.981 266.155 220.788 269.078 222.4C272.101 224.113 274.318 226.532 275.83 229.555C277.341 232.679 278.148 236.307 278.148 240.439C278.148 243.462 277.644 246.284 276.837 248.803C276.031 251.323 274.822 253.439 273.109 255.354C271.496 257.168 269.38 258.578 266.961 259.485C264.543 260.493 261.822 260.997 258.698 260.997C255.574 260.997 252.752 260.493 250.334 259.485C247.915 258.478 245.799 257.067 244.186 255.253C242.574 253.439 241.264 251.222 240.458 248.702C239.651 246.082 239.248 243.361 239.248 240.338C239.248 237.315 239.651 234.493 240.558 231.974C241.365 229.454 242.675 227.237 244.287 225.423C246 223.71 248.016 222.299 250.434 221.392C252.752 220.385 255.473 219.981 258.496 219.981ZM269.985 240.338C269.985 237.416 269.481 234.896 268.574 232.78C267.566 230.664 266.256 229.051 264.543 227.943C262.83 226.834 260.814 226.33 258.496 226.33C256.884 226.33 255.473 226.633 254.062 227.237C252.752 227.842 251.543 228.749 250.535 229.857C249.527 231.067 248.822 232.478 248.217 234.292C247.613 236.106 247.411 238.121 247.411 240.338C247.411 242.656 247.613 244.671 248.217 246.485C248.822 248.299 249.628 249.811 250.636 251.02C251.644 252.23 252.853 253.137 254.163 253.741C255.574 254.346 256.985 254.648 258.597 254.648C260.713 254.648 262.527 254.144 264.341 253.036C266.055 252.028 267.365 250.416 268.372 248.299C269.481 246.183 269.985 243.462 269.985 240.338ZM295.783 243.361H292.961V256.059C292.961 257.772 292.558 258.982 291.853 259.788C291.148 260.594 290.14 260.997 288.93 260.997C287.721 260.997 286.713 260.594 286.008 259.788C285.303 258.881 284.899 257.671 284.899 256.059V225.524C284.899 223.811 285.303 222.602 286.109 221.795C286.814 220.989 288.124 220.586 289.837 220.586H302.938C304.752 220.586 306.264 220.687 307.574 220.888C308.884 220.989 309.992 221.292 311 221.795C312.31 222.299 313.419 223.005 314.326 224.013C315.334 225.02 316.039 226.129 316.543 227.439C317.047 228.749 317.248 230.059 317.248 231.571C317.248 234.493 316.442 236.912 314.729 238.625C313.117 240.439 310.597 241.648 307.171 242.354C308.582 243.16 309.992 244.268 311.303 245.78C312.512 247.191 313.721 248.803 314.729 250.516C315.737 252.129 316.543 253.64 317.148 255.051C317.651 256.361 317.954 257.268 317.954 257.772C317.954 258.276 317.752 258.78 317.45 259.284C317.148 259.888 316.644 260.292 316.14 260.594C315.535 260.896 314.83 260.997 314.124 260.997C313.217 260.997 312.411 260.795 311.806 260.392C311.202 259.888 310.698 259.385 310.194 258.78C309.791 258.075 309.186 257.168 308.481 255.857L305.256 250.516C304.047 248.602 303.039 247.09 302.132 246.082C301.225 244.974 300.318 244.268 299.31 243.966C298.403 243.563 297.194 243.361 295.783 243.361ZM300.419 226.633H292.961V237.617H300.217C302.132 237.617 303.744 237.416 305.055 237.113C306.365 236.71 307.372 236.206 308.078 235.4C308.783 234.594 309.086 233.485 309.086 232.075C309.086 230.966 308.783 229.958 308.279 229.152C307.675 228.245 306.969 227.64 305.961 227.237C304.954 226.834 303.14 226.633 300.419 226.633ZM347.884 227.237H339.117V256.059C339.117 257.772 338.814 258.982 338.008 259.788C337.303 260.594 336.295 260.997 335.186 260.997C333.977 260.997 332.969 260.594 332.264 259.788C331.458 258.982 331.055 257.772 331.055 256.059V227.237H322.287C320.977 227.237 319.969 226.935 319.264 226.33C318.558 225.726 318.256 224.919 318.256 223.912C318.256 222.904 318.558 222.098 319.264 221.493C319.969 220.888 320.977 220.586 322.287 220.586H347.884C349.295 220.586 350.303 220.888 351.008 221.493C351.713 222.199 352.016 223.005 352.016 223.912C352.016 224.919 351.713 225.726 351.008 226.33C350.303 226.935 349.295 227.237 347.884 227.237Z" fill="#fff"/>
  <path fill-rule="evenodd" clip-rule="evenodd" d="M100.88 140.47C99.066 144.501 97.1513 148.129 95.4381 152.059C101.585 154.679 107.632 157.4 113.779 159.919C146.027 167.578 156.306 191.361 204.376 189.547C191.779 178.563 182.709 160.121 179.283 141.679C237.632 112.354 281.263 132.307 283.983 81.416C245.991 75.1679 207.697 68.718 169.603 62.37C162.347 41.913 155.192 21.556 148.037 0.998047C132.719 21.858 124.959 46.75 126.773 74.463C128.889 109.533 109.44 112.455 100.874 140.471L100.88 140.47ZM156.206 120.214C186.438 132.005 187.647 122.532 219.392 116.385C244.888 111.144 273.407 115.377 268.671 88.571C239.748 76.075 190.57 81.0129 161.651 68.013C156.31 53.703 150.868 39.292 145.527 24.881C128.093 50.8811 146.031 70.633 137.868 91.997C130.109 112.354 112.977 128.981 105.62 150.144C128.194 152.865 135.45 160.927 152.582 164.656C160.744 173.524 163.163 172.113 177.473 175.338C173.845 164.152 172.636 158.005 170.217 146.919C164.07 118.098 159.938 146.416 156.21 120.214H156.206Z" fill="#fff"/>
</svg>
