<svg width="104" height="104" viewBox="0 0 104 104" fill="none"
  xmlns="http://www.w3.org/2000/svg">
  <!-- <path fill-rule="evenodd" clip-rule="evenodd" d="M51.8149 0C80.6833 0 104 23.3167 104 51.8149C104 80.6833 80.6833 104 51.8149 104C23.3167 104 0 80.6833 0 51.8149C0 23.3167 23.3167 0 51.8149 0V0ZM9.99288 78.4626C11.4733 80.6833 18.8754 87.7153 21.0961 89.5658C26.2776 94.0071 31.089 96.2278 37.3808 98.4484L26.2776 85.8648L9.99288 78.4626V78.4626ZM64.7687 99.1886C66.9893 99.1886 78.0925 93.2669 80.6833 91.4164C85.1246 88.4555 88.4555 84.7545 91.7865 80.3132L75.8719 86.9751L64.7687 99.1886V99.1886ZM101.039 55.1459C101.409 52.9253 100.299 41.452 98.8185 38.121C98.8185 35.9004 92.1566 23.6868 91.0463 22.9466L92.5267 39.9715L101.039 55.1459ZM3.33096 52.5552L12.5836 38.8612L14.0641 21.0961C12.2135 22.9466 7.77224 31.8292 7.03203 33.3096C5.18149 37.0107 2.59075 48.1139 3.33096 52.5552V52.5552ZM36.2705 5.92171L51.4448 8.88256L69.5801 6.29182C65.879 4.44128 56.9964 2.96085 52.9253 2.96085C47.0036 3.33096 41.8221 4.07117 36.2705 5.92171V5.92171ZM21.8363 42.1922L31.4591 78.4626L70.3203 79.9431L83.274 44.0427L52.1851 19.6157L21.8363 42.1922V42.1922ZM29.6085 84.0142L43.3025 99.9288C49.2242 101.039 53.2954 101.039 59.2171 100.299L72.1708 85.8648L70.3203 83.6441L30.7189 82.1637L29.6085 84.0142V84.0142ZM26.6477 81.7936L27.758 80.3132L18.5053 43.6726L14.8043 41.8221L2.96085 58.4769C3.33096 61.4377 4.07117 63.6584 4.81139 65.879C5.5516 68.8399 5.92171 70.6904 7.40214 73.6512L26.6477 81.7936V81.7936ZM75.5018 83.6441L95.4875 74.7616C96.5979 72.1708 97.7082 69.21 98.4484 66.6192C99.1886 64.3986 99.5587 62.1779 100.299 59.9573L90.3061 43.6726L86.9751 44.7829L73.6512 81.4235L75.5018 83.6441ZM50.3345 12.5836L31.4591 7.77224C29.6085 8.51246 27.3879 9.99288 24.427 11.8434C21.0961 14.0641 18.1352 16.6548 17.7651 17.0249L16.2847 38.4911L19.2456 39.9715L50.3345 15.5445V12.5836V12.5836ZM54.0356 12.5836V16.2847L85.8648 41.452L88.8256 39.9715L87.7153 18.8754C87.3452 17.7651 83.274 14.4342 81.7936 13.3238C79.9431 11.8434 78.8327 10.7331 74.7616 8.88256L54.0356 12.5836Z" fill="#282829"/> -->
  <path fill-rule="evenodd" clip-rule="evenodd" d="M51.8149 0C80.6833 0 104 23.3167 104 51.8149C104 80.6833 80.6833 104 51.8149 104C23.3167 104 0 80.6833 0 51.8149C0 23.3167 23.3167 0 51.8149 0V0ZM9.99288 78.4626C11.4733 80.6833 18.8754 87.7153 21.0961 89.5658C26.2776 94.0071 31.089 96.2278 37.3808 98.4484L26.2776 85.8648L9.99288 78.4626V78.4626ZM64.7687 99.1886C66.9893 99.1886 78.0925 93.2669 80.6833 91.4164C85.1246 88.4555 88.4555 84.7545 91.7865 80.3132L75.8719 86.9751L64.7687 99.1886V99.1886ZM101.039 55.1459C101.409 52.9253 100.299 41.452 98.8185 38.121C98.8185 35.9004 92.1566 23.6868 91.0463 22.9466L92.5267 39.9715L101.039 55.1459ZM3.33096 52.5552L12.5836 38.8612L14.0641 21.0961C12.2135 22.9466 7.77224 31.8292 7.03203 33.3096C5.18149 37.0107 2.59075 48.1139 3.33096 52.5552V52.5552ZM36.2705 5.92171L51.4448 8.88256L69.5801 6.29182C65.879 4.44128 56.9964 2.96085 52.9253 2.96085C47.0036 3.33096 41.8221 4.07117 36.2705 5.92171V5.92171ZM21.8363 42.1922L31.4591 78.4626L70.3203 79.9431L83.274 44.0427L52.1851 19.6157L21.8363 42.1922V42.1922ZM29.6085 84.0142L43.3025 99.9288C49.2242 101.039 53.2954 101.039 59.2171 100.299L72.1708 85.8648L70.3203 83.6441L30.7189 82.1637L29.6085 84.0142V84.0142ZM26.6477 81.7936L27.758 80.3132L18.5053 43.6726L14.8043 41.8221L2.96085 58.4769C3.33096 61.4377 4.07117 63.6584 4.81139 65.879C5.5516 68.8399 5.92171 70.6904 7.40214 73.6512L26.6477 81.7936V81.7936ZM75.5018 83.6441L95.4875 74.7616C96.5979 72.1708 97.7082 69.21 98.4484 66.6192C99.1886 64.3986 99.5587 62.1779 100.299 59.9573L90.3061 43.6726L86.9751 44.7829L73.6512 81.4235L75.5018 83.6441ZM50.3345 12.5836L31.4591 7.77224C29.6085 8.51246 27.3879 9.99288 24.427 11.8434C21.0961 14.0641 18.1352 16.6548 17.7651 17.0249L16.2847 38.4911L19.2456 39.9715L50.3345 15.5445V12.5836V12.5836ZM54.0356 12.5836V16.2847L85.8648 41.452L88.8256 39.9715L87.7153 18.8754C87.3452 17.7651 83.274 14.4342 81.7936 13.3238C79.9431 11.8434 78.8327 10.7331 74.7616 8.88256L54.0356 12.5836Z"/>
  <path d="M75 50H29V54H75V50Z" fill="#282829"/>
  <path d="M71 40H34V44H71V40Z" fill="#282829"/>
  <path d="M71 60H34V64H71V60Z" fill="#282829"/>
</svg>


