<svg width="104" height="104" viewBox="0 0 104 104" fill="#262626"
  xmlns="http://www.w3.org/2000/svg">
  <path fill-rule="evenodd" clip-rule="evenodd" d="M51.8284 0C80.6601 0 104 23.3399 104 51.8284C104 80.6601 80.6601 104 51.8284 104C23.3399 104 0 80.6601 0 51.8284C0 23.3399 23.3399 0 51.8284 0V0ZM10.297 78.6007C11.3267 80.6601 18.8779 87.868 20.9373 89.5842C26.0858 94.0462 30.8911 96.1056 37.4125 98.5082L26.0858 85.8086L10.297 78.6007V78.6007ZM64.8713 99.1947C66.9307 98.8515 77.9142 93.3597 80.6601 91.6436C85.1221 88.5545 88.5545 84.4356 91.6436 79.9736L75.8548 86.8383L64.8713 99.1947V99.1947ZM100.911 55.2607C101.597 52.8581 100.568 41.5314 98.8515 38.099C98.8515 35.6964 92.33 23.6832 90.9571 22.6535L92.6733 40.1584L100.911 55.2607ZM3.08911 52.5149L12.3564 39.1287L14.0726 21.2805C12.3564 22.6535 7.55116 31.5776 6.86469 33.2937C5.14852 37.0693 2.40264 48.0528 3.08911 52.5149V52.5149ZM36.3828 5.83498L51.4851 8.92409L69.6766 6.17822C65.901 4.11881 56.9769 3.08911 52.8581 3.08911C47.0231 3.08911 41.5314 4.11881 36.3828 5.83498V5.83498ZM21.967 42.2178L31.2343 78.6007L70.0198 79.9736L83.4059 43.934L52.1716 19.5644L21.967 42.2178V42.2178ZM29.5182 84.0924L43.5908 99.8812C49.0825 100.911 53.2013 101.254 59.0363 100.224L72.4224 85.8086L70.363 83.7492L30.8911 82.033L29.5182 84.0924ZM26.429 82.033L27.802 79.9736L18.5347 43.5908L14.7591 41.8746L3.08911 58.6931C3.43234 61.4389 4.11881 63.8416 4.80528 65.901C5.49175 68.9901 6.17822 70.7063 7.55116 73.4522L26.429 82.033V82.033ZM75.1683 83.4059L95.4191 74.8251C96.4488 72.0792 97.4785 69.3333 98.5082 66.5875C99.1947 64.5281 99.538 62.1254 100.224 60.066L90.2706 43.5908L86.8383 44.9637L73.4522 81.3465L75.1683 83.4059V83.4059ZM50.4554 12.3564L31.5776 7.89439C29.8614 8.58086 27.4587 9.9538 24.3696 11.67C20.9373 14.0726 18.1914 16.8185 17.8482 17.1617L16.132 38.4422L19.2211 39.8152L50.4554 15.4455V12.3564V12.3564ZM53.8878 12.6997V16.4752L85.8086 41.5314L88.8977 40.1584L87.868 18.8779C87.1815 17.505 83.4059 14.4158 81.6898 13.0429C79.6304 11.67 78.6007 10.6403 74.8251 8.92409L53.8878 12.6997V12.6997Z" fill="#fff"/>
  <path fill-rule="evenodd" clip-rule="evenodd" d="M35.01 67.9604L49.4259 53.5446L35.01 39.4719L37.7559 36.7261L51.8285 50.7987L66.2443 36.7261L68.647 39.4719L54.5744 53.5446L68.647 67.9604L66.2443 70.363L51.8285 56.2904L37.7559 70.363L35.01 67.9604Z" fill="#fff"/>
</svg>
