<svg width="60" height="50" viewBox="0 0 60 50" fill="none"
  xmlns="http://www.w3.org/2000/svg">
  <path d="M29.84 43.4798C29.84 41.4803 31.1325 39.8783 32.745 39.8783C34.355 39.8783 35.645 41.4803 35.645 43.4798C35.6463 43.9534 35.5722 44.4226 35.427 44.8605C35.2817 45.2984 35.0682 45.6963 34.7987 46.0313C34.5292 46.3663 34.209 46.6318 33.8565 46.8126C33.5041 46.9933 33.1263 47.0858 32.745 47.0845C32.3635 47.0866 31.9854 46.9949 31.6325 46.8147C31.2796 46.6345 30.959 46.3694 30.6889 46.0346C30.4189 45.6998 30.2049 45.302 30.0592 44.8641C29.9135 44.4262 29.839 43.9568 29.84 43.4829M41.65 43.4829C41.65 41.4803 42.9425 39.8751 44.5525 39.8751C46.1625 39.8751 47.455 41.4803 47.455 43.4798C47.455 45.4793 46.1625 47.0845 44.555 47.0845C44.1735 47.0866 43.7954 46.9949 43.4425 46.8147C43.0896 46.6345 42.769 46.3694 42.4989 46.0346C42.2289 45.6998 42.0149 45.302 41.8692 44.8641C41.7235 44.4262 41.649 43.9568 41.65 43.4829M14.275 43.4829C14.275 41.4803 15.5675 39.8751 17.1775 39.8751C18.7875 39.8751 20.0775 41.4803 20.0775 43.4798C20.0775 45.4793 18.7875 47.0845 17.1775 47.0845C16.7962 47.0862 16.4184 46.9942 16.0658 46.8138C15.7132 46.6334 15.3928 46.3682 15.1231 46.0335C14.8533 45.6988 14.6395 45.3011 14.494 44.8634C14.3484 44.4257 14.274 43.9565 14.275 43.4829M2.465 43.4829C2.465 41.4803 3.7575 39.8751 5.3675 39.8751C6.9775 39.8751 8.27 41.4803 8.27 43.4798C8.27132 43.9537 8.19715 44.4231 8.05175 44.8612C7.90636 45.2993 7.69261 45.6973 7.42282 46.0324C7.15304 46.3675 6.83254 46.6329 6.4798 46.8135C6.12706 46.9941 5.74903 47.0862 5.3675 47.0845C4.98639 47.0858 4.60884 46.9934 4.25655 46.8129C3.90426 46.6323 3.58417 46.3671 3.31468 46.0324C3.0452 45.6977 2.83162 45.3002 2.68623 44.8627C2.54085 44.4251 2.46651 43.9563 2.4675 43.4829M26.3425 37.1119H23.8175V49.7267H26.3425V37.1119ZM8.25 49.7267H10.775V37.1119H8.25V38.124C7.36984 37.3633 6.32232 36.9578 5.25 36.9628C2.345 36.9628 0 39.8751 0 43.4829C0 47.1094 2.345 50 5.25 50C6.3625 50 7.395 49.5808 8.25 48.8387V49.7267V49.7267ZM47.435 49.7267H49.96V37.1119H47.435V38.124C46.5548 37.3633 45.5073 36.9578 44.435 36.9628C41.53 36.9628 39.185 39.8751 39.185 43.4829C39.1827 44.3398 39.3169 45.1888 39.58 45.981C39.843 46.7732 40.2297 47.4929 40.7177 48.0987C41.2057 48.7044 41.7854 49.1843 42.4234 49.5106C43.0614 49.8369 43.745 50.0032 44.435 50C45.5475 50 46.58 49.5808 47.435 48.8387V49.7267V49.7267ZM50.895 45.6284C50.975 48.1743 52.725 49.9751 55.645 49.9751C58.0325 49.9751 60 48.6897 60 45.8519C60 43.8773 59.105 42.7161 57.0375 42.2193L55.4275 41.8281C54.3925 41.5797 53.6775 41.3313 53.6775 40.5675C53.6775 39.7292 54.3725 39.3566 55.2475 39.3566C56.5225 39.3566 57.0375 40.1484 57.0775 41.086H59.6225C59.4825 38.6177 57.8925 36.9628 55.3275 36.9628C52.685 36.9628 51.1125 38.7636 51.1125 41.1109C51.1125 43.9735 52.9825 44.4423 54.5925 44.8149L55.925 45.1099C56.88 45.3334 57.2975 45.678 57.2975 46.3704C57.2975 46.9883 56.82 47.603 55.685 47.603C54.035 47.603 53.5 46.5412 53.48 45.6284H50.895V45.6284ZM20.06 32.8148V38.124C19.1798 37.3633 18.1323 36.9578 17.06 36.9628C14.155 36.9628 11.81 39.8751 11.81 43.4829C11.81 47.1094 14.155 50 17.06 50C18.17 50 19.205 49.5808 20.06 48.8387V49.7267H22.585V32.8148H20.06V32.8148ZM35.625 32.8148V38.124C34.7448 37.3633 33.6973 36.9578 32.625 36.9628C29.7225 36.9628 27.375 39.8751 27.375 43.4829C27.3727 44.3398 27.5069 45.1888 27.77 45.981C28.033 46.7732 28.4197 47.4929 28.9077 48.0987C29.3957 48.7044 29.9754 49.1843 30.6134 49.5106C31.2514 49.8369 31.935 50.0032 32.625 50C33.7375 50 34.77 49.5808 35.625 48.8387V49.7267H38.15V32.8148H35.625V32.8148ZM6.56 29.089L8.27 32.8148H20.06L15.3875 22.7893L6.5625 29.0859L6.56 29.089ZM26.3425 35.9507V32.8148H35.625L25.725 11.5313L16.8775 17.8279L23.8175 32.8148V35.9507H26.3425V35.9507ZM39.385 32.8148H51.1925L35.925 0L27.0975 6.32141L39.385 32.8148V32.8148Z" fill="#fff"/>
</svg>
