<svg width="76" height="42" viewBox="0 0 76 42" fill="none"
  xmlns="http://www.w3.org/2000/svg">
  <path fill-rule="evenodd" clip-rule="evenodd" d="M12.739 25.5665C12.1346 25.5665 11.6615 26.0112 11.6615 26.6602C11.6615 27.3095 12.1371 27.7516 12.739 27.7516C13.3405 27.7516 13.8165 27.3065 13.8165 26.6602C13.8165 26.0112 13.3429 25.5665 12.739 25.5665ZM12.739 27.4389C12.308 27.4389 11.9884 27.1079 11.9884 26.6602C11.9884 26.2129 12.3056 25.8792 12.739 25.8792C13.167 25.8792 13.4891 26.218 13.4891 26.6602C13.4891 27.0997 13.1642 27.4389 12.739 27.4389ZM23.2235 21.7414H17.9782L18.5744 12.1517L15.1681 21.7414H10.2972L18.0257 0.065918H23.2085L22.6102 9.78719L26.0811 0.065918H30.9524L23.2235 21.7414ZM23.8563 21.7414L31.5844 0.065918H36.4552L28.7271 21.7414H23.8563Z" fill="#fff"/>
  <path fill-rule="evenodd" clip-rule="evenodd" d="M9.73555 14.2707C2.92902 22.6783 -3.49168 33.8653 2.17969 39.0169C7.67519 44.0091 14.5443 41.0533 19.2279 39.0827C23.9115 37.112 75.6796 13.4658 75.6796 13.4658C76.1791 13.2031 76.0857 12.8746 75.4611 13.0386C75.2093 13.1049 19.1032 29.0982 19.1032 29.0982C11.9835 31.2005 3.86558 26.6188 9.73555 14.2707V14.2707Z" fill="#fff"/>
  <path fill-rule="evenodd" clip-rule="evenodd" d="M12.9225 26.7374C13.0736 26.7297 13.1918 26.6476 13.1918 26.4276C13.1918 26.144 13.0155 26.0726 12.7211 26.0726H12.2979V27.2487H12.5801V26.748H12.6276L12.8847 27.2487H13.2092L12.9225 26.7374V26.7374ZM12.7414 26.5468H12.5805V26.2738H12.7162C12.7994 26.2738 12.8949 26.2841 12.8949 26.3982C12.8949 26.5203 12.8396 26.5468 12.7414 26.5468ZM61.7026 0C61.0982 0 60.6251 0.445137 60.6251 1.09362C60.6251 1.74253 61.1011 2.18468 61.7026 2.18468C62.3041 2.18468 62.7801 1.73954 62.7801 1.09362C62.7805 0.445137 62.3073 0 61.7026 0ZM61.7026 1.87283C61.2717 1.87283 60.952 1.54175 60.952 1.09405C60.952 0.646775 61.2692 0.313134 61.7026 0.313134C62.1306 0.313134 62.4531 0.651902 62.4531 1.09405C62.4531 1.53363 62.1282 1.87283 61.7026 1.87283Z" fill="#fff"/>
  <path fill-rule="evenodd" clip-rule="evenodd" d="M61.8866 1.17022C62.0377 1.16253 62.1563 1.08051 62.1563 0.860503C62.1563 0.576845 61.9796 0.505503 61.6855 0.505503H61.2623V1.68115H61.5442V1.1809H61.5921L61.8488 1.68115H62.1737L61.8866 1.17022ZM61.705 0.979691H61.5442V0.706712H61.6803C61.7631 0.706712 61.859 0.717392 61.859 0.831453C61.859 0.953204 61.8033 0.979691 61.705 0.979691V0.979691ZM58.4933 3.67872L59.8023 0.065918H44.9399L39.8367 6.5687L42.1928 0.065918H37.2594L29.593 21.7414H34.4639L37.737 12.6772L37.9612 21.7414L52.9068 21.7072L54.3295 17.5378H48.6472L50.5142 12.2833H55.1974L56.6384 8.24373H51.9552L53.5607 3.67872H58.4933V3.67872ZM42.7934 20.2962L42.4811 8.99902L49.8457 0.493968L42.7934 20.2962V20.2962Z" fill="#fff"/>
</svg>
