<svg width="78" height="45" viewBox="0 0 78 45" fill="none"
  xmlns="http://www.w3.org/2000/svg">
  <path d="M42.0383 0.12549C41.7832 0.162033 41.5375 1.05644 41.0455 1.52348C40.6837 1.85905 40.2348 1.83944 39.9951 2.25479C39.9038 2.40942 39.9329 2.67503 39.8299 2.92994C39.6281 3.43887 38.9199 3.48388 38.9199 4.03915C38.918 4.63854 39.5106 4.75308 40.0246 5.17822C40.4253 5.51959 40.4637 5.75578 40.951 5.922C41.3652 6.05614 41.9831 5.61674 42.5383 5.77494C42.9947 5.90418 43.4314 5.99732 43.5348 6.44296C43.6252 6.85474 43.5283 7.49201 42.9755 7.41804C42.7896 7.39798 41.9798 7.13951 40.987 7.23933C39.7878 7.36946 38.4214 7.74202 38.2861 9.01434C38.2131 9.7247 39.1362 10.5634 40.0288 10.3932C40.6458 10.2773 40.3542 9.58477 40.6898 9.2483C41.1293 8.81692 43.6252 10.7528 45.945 10.7528C46.9215 10.7528 47.6489 10.5179 48.3693 9.79823C48.4376 9.74342 48.5186 9.62576 48.6235 9.61819C48.7222 9.62621 48.8926 9.71801 48.9492 9.75723C50.8169 11.1864 52.2301 14.0541 59.0961 14.0876C60.0617 14.0934 61.1608 14.5319 62.0586 15.3113C62.86 16.0168 63.329 17.1144 63.7849 18.2276C64.4726 19.897 65.7032 21.5223 67.5699 23.3294C67.6724 23.4261 69.2092 24.5643 69.3318 24.6485C69.351 24.661 69.4643 24.9177 69.425 25.0611C69.3786 26.1459 69.2139 29.2975 71.6821 29.4392C72.2841 29.4686 72.1268 29.0639 72.1268 28.7872C72.1259 28.2382 72.0201 27.6922 72.3243 27.1298C72.7409 26.358 71.4429 26.0019 71.4803 24.3298C71.5084 23.0843 70.407 23.2964 69.8509 22.3472C69.5293 21.7968 69.2438 21.5049 69.2639 20.8329C69.3903 17.0467 68.4176 14.5586 67.9332 13.9476C67.554 13.4864 67.2413 13.3037 67.5891 13.0898C69.6473 11.7943 70.1149 10.5897 70.1149 10.5897C71.2103 8.1382 72.1951 5.89928 73.5549 4.91395C73.8283 4.71029 74.5295 4.21072 74.9592 4.01598C76.2282 3.44689 76.8948 3.10196 77.2632 2.76104C77.8441 2.22136 78.3065 1.09388 77.7476 0.410703C77.053 -0.432904 75.8519 0.236456 75.3215 0.53593C71.5342 2.67548 70.9772 6.45009 69.6646 8.61682C68.6184 10.349 66.9169 11.6209 65.3956 11.7252C64.2558 11.8059 63.0262 11.5862 61.8021 11.0746C58.825 9.83165 57.1961 8.22733 56.8113 7.9439C56.0113 7.35654 49.8016 1.55245 44.7715 1.31626C44.7715 1.31626 44.1471 0.125936 43.9898 0.106328C43.6224 0.0613174 43.2456 0.816687 42.9759 0.904925C42.7213 0.984249 42.2944 0.0862732 42.0383 0.12549V0.12549ZM19.8911 34.7611C19.4174 34.7499 19.0153 34.38 19.0153 33.9228L19.0162 18.9825H13.8443V35.4509C13.8443 36.2584 14.531 36.9167 15.3745 36.9167H24.4142C25.2624 36.9167 25.9412 36.258 25.9412 35.4509V18.9825H20.7734L20.7692 33.9228C20.7697 34.38 20.3667 34.7499 19.8911 34.7611V34.7611ZM37.2062 18.9825H29.3798C29.1584 18.9829 28.9394 19.0248 28.7351 19.1058C28.5308 19.1868 28.3453 19.3054 28.1892 19.4547C28.0331 19.6041 27.9094 19.7812 27.8253 19.9761C27.7411 20.171 27.6982 20.3797 27.6988 20.5904V36.9167H32.8759V21.9416C32.8765 21.8329 32.8997 21.7253 32.944 21.6251C32.9883 21.5249 33.0529 21.434 33.1342 21.3576C33.2154 21.2812 33.3117 21.2208 33.4175 21.1798C33.5233 21.1389 33.6366 21.1182 33.7508 21.119C34.2339 21.119 34.6214 21.4737 34.6327 21.9287V36.9171H39.7873V21.9283C39.7948 21.4733 40.1814 21.1185 40.664 21.1185C41.142 21.1185 41.537 21.4822 41.5408 21.9412V36.9167H46.7183V20.5904C46.7188 20.3797 46.6757 20.1709 46.5914 19.976C46.5071 19.7811 46.3833 19.604 46.2271 19.4546C46.0708 19.3053 45.8852 19.1868 45.6809 19.1058C45.4765 19.0248 45.2574 18.9829 45.036 18.9825H37.2062ZM10.3944 32.4103H5.1696V36.9167H0V18.9825H10.4272C11.3606 18.9825 12.0894 19.7049 12.0894 20.5976V30.793C12.0901 31.0053 12.0467 31.2156 11.9618 31.4119C11.8769 31.6081 11.7522 31.7865 11.5947 31.9368C11.4372 32.087 11.2501 32.2062 11.0442 32.2875C10.8382 32.3687 10.6174 32.4105 10.3944 32.4103ZM6.92354 21.9724C6.92515 21.8616 6.90378 21.7516 6.86065 21.6487C6.81752 21.5457 6.75349 21.4519 6.67222 21.3726C6.59095 21.2933 6.49404 21.23 6.38704 21.1864C6.28004 21.1428 6.16506 21.1197 6.04868 21.1185H5.1696V30.1896H6.04868C6.50413 30.1896 6.92775 29.8447 6.92354 29.3469V21.9724ZM66.7854 34.7909C66.7854 36.0093 65.7593 37 64.4894 37C64.1849 37.0004 63.8834 36.9434 63.6021 36.8324C63.3209 36.7214 63.0654 36.5586 62.8505 36.3533C62.6356 36.148 62.4654 35.9043 62.3497 35.6362C62.2341 35.368 62.1752 35.0808 62.1766 34.7909C62.1766 33.5904 63.2078 32.5854 64.452 32.5854C65.7579 32.5841 66.7854 33.5592 66.7854 34.7909ZM64.4562 32.9063C63.4165 32.9063 62.5445 33.7606 62.5445 34.7967C62.5445 35.8364 63.4165 36.6836 64.488 36.6836C65.551 36.6836 66.4133 35.8364 66.4133 34.7967C66.4133 33.7588 65.551 32.9063 64.488 32.9063H64.4562V32.9063Z" fill="#fff"/>
  <path d="M66 35.4664H65.3781L64.5778 34.497V35.4664H64.0697V33.0162H64.6028C65.3305 33.0162 65.7157 33.2653 65.7157 33.7433C65.7157 34.0619 65.4882 34.3437 65.1709 34.4296L65.1331 34.4416L66 35.4664ZM64.6652 34.0993C65.0268 34.0993 65.2195 33.9829 65.2195 33.7493C65.2195 33.5414 65.0335 33.434 64.6803 33.434H64.5764V34.1002L64.6652 34.0993V34.0993ZM55.7344 36.2837V31.9442H53.9604V36.2837H48.7495V20.5496C48.7495 19.6906 49.5097 19 50.4455 19H59.2497C59.4731 19.0002 59.6943 19.0404 59.9005 19.1184C60.1068 19.1964 60.2941 19.3106 60.4518 19.4546C60.6095 19.5985 60.7344 19.7693 60.8194 19.9572C60.9044 20.1451 60.9478 20.3464 60.9472 20.5496V36.2837H55.7344ZM55.7344 29.8041V21.8453C55.7216 21.4055 55.3312 21.0671 54.8448 21.0671C54.6127 21.0667 54.3898 21.1495 54.2243 21.2975C54.0588 21.4454 53.964 21.6467 53.9604 21.8578V29.8041H55.7344V29.8041ZM0 45V40.2516H0.582195V40.6979C0.719126 40.5235 0.874472 40.3917 1.04776 40.3045C1.22011 40.2181 1.42975 40.173 1.67623 40.173C1.99873 40.173 2.2825 40.2499 2.52898 40.399C2.7764 40.551 2.96197 40.7636 3.0871 41.038C3.21364 41.3129 3.27597 41.614 3.27597 41.9417C3.27597 42.2925 3.20703 42.6095 3.06774 42.8908C2.92939 43.1717 2.72824 43.3869 2.46382 43.5372C2.21505 43.6823 1.92596 43.7599 1.63043 43.7609C1.41653 43.7609 1.22624 43.7197 1.05673 43.6385C0.895125 43.5629 0.752891 43.4571 0.639328 43.328V44.9991L0 45V45ZM0.578889 41.9872C0.578889 42.4283 0.677102 42.7555 0.873528 42.9668C1.06995 43.1777 1.30935 43.2834 1.58793 43.2834C1.87171 43.2834 2.11583 43.1743 2.31839 42.9539C2.52095 42.7358 2.62295 42.3969 2.62295 41.9382C2.62295 41.5001 2.52331 41.1737 2.32594 40.9551C2.1281 40.7378 1.89154 40.6287 1.61768 40.6287C1.34476 40.6287 1.10348 40.7447 0.89336 40.9762C0.682768 41.209 0.578889 41.5465 0.578889 41.9872V41.9872ZM10.1589 43.6854V43.1807C9.86378 43.569 9.46527 43.7622 8.96051 43.7622C8.73858 43.7622 8.52988 43.7236 8.33676 43.6458C8.14411 43.5685 8.00104 43.4702 7.90755 43.3534C7.80784 43.2243 7.74032 43.077 7.70971 42.9217C7.68421 42.8071 7.67099 42.6262 7.67099 42.3776V40.2512H8.31032V42.1551C8.31032 42.4596 8.32401 42.664 8.34951 42.7697C8.39059 42.923 8.47605 43.0424 8.60543 43.1305C8.7367 43.2176 8.89771 43.2615 9.08941 43.2615C9.28112 43.2615 9.46054 43.2168 9.62958 43.1275C9.79815 43.0386 9.91667 42.9161 9.98608 42.7624C10.0564 42.6078 10.0918 42.384 10.0918 42.0915V40.2529H10.7312V43.6854H10.1589ZM15.3713 43.6854V40.2529H15.9426V40.7335C16.0612 40.5654 16.2238 40.4265 16.4157 40.3294C16.6126 40.2267 16.8369 40.1748 17.0876 40.1748C17.3667 40.1748 17.5962 40.228 17.7742 40.3337C17.9536 40.4398 18.0801 40.5862 18.1529 40.776C18.4527 40.3753 18.8408 40.1748 19.3187 40.1748C19.6936 40.1748 19.9811 40.2701 20.1827 40.4582C20.3839 40.6463 20.4849 40.9371 20.4849 41.3288V43.6854H19.8494V41.5229C19.8494 41.2897 19.8286 41.1218 19.7875 41.0196C19.7443 40.9168 19.665 40.83 19.5618 40.7726C19.4463 40.7083 19.3129 40.6755 19.1775 40.6781C18.9116 40.6781 18.6921 40.7589 18.5164 40.9195C18.3417 41.0797 18.253 41.3369 18.253 41.69V43.6854H17.6136V41.4555C17.6136 41.1961 17.5617 41.002 17.4569 40.8731C17.3525 40.7443 17.1825 40.6794 16.945 40.6794C16.7656 40.6794 16.5994 40.7228 16.4464 40.81C16.2934 40.8959 16.182 41.0217 16.114 41.1875C16.0451 41.3541 16.0106 41.5929 16.0106 41.9056V43.6862H15.3713V43.6854V43.6854ZM27.5341 43.261C27.2966 43.4444 27.0685 43.5733 26.8499 43.6488C26.6241 43.7253 26.3849 43.7636 26.144 43.7618C25.7289 43.7618 25.4112 43.6699 25.1883 43.4861C24.9664 43.301 24.8545 43.0656 24.8545 42.7791C24.8545 42.6099 24.8955 42.457 24.9805 42.3179C25.0594 42.184 25.1726 42.0694 25.3106 41.9837C25.4475 41.9004 25.6005 41.836 25.7714 41.7935C25.9586 41.7535 26.1483 41.7244 26.3395 41.7063C26.856 41.65 27.2371 41.5839 27.4807 41.5049C27.4831 41.4254 27.4845 41.3747 27.4845 41.3537C27.4845 41.1166 27.4241 40.9495 27.3027 40.8529C27.1403 40.7202 26.8966 40.6554 26.5751 40.6554C26.2743 40.6554 26.0524 40.7026 25.9074 40.7988C25.7644 40.895 25.6591 41.0647 25.5896 41.3086L24.965 41.23C25.0221 40.9882 25.1156 40.7906 25.2454 40.6416C25.3753 40.4909 25.5646 40.3758 25.8106 40.2946C26.0566 40.2139 26.3418 40.173 26.6672 40.173C26.9897 40.173 27.2503 40.2083 27.4519 40.2766C27.6535 40.3461 27.8013 40.4316 27.8972 40.5364C27.9921 40.6412 28.0572 40.773 28.096 40.9332C28.1167 41.032 28.1276 41.2107 28.1276 41.4692V42.2453C28.1276 42.7869 28.1408 43.1296 28.1687 43.2713C28.1956 43.4148 28.2499 43.5526 28.3302 43.6841H27.6616C27.591 43.5513 27.5478 43.4079 27.5341 43.261V43.261ZM27.4802 41.9614C27.2475 42.0486 26.8995 42.1212 26.4358 42.1822C26.1728 42.2165 25.9858 42.2552 25.8777 42.2986C25.7743 42.337 25.6863 42.4032 25.6255 42.4884C25.5665 42.5704 25.5358 42.6619 25.5358 42.7641C25.5358 42.9196 25.6015 43.0489 25.7299 43.1524C25.8578 43.255 26.0477 43.3061 26.2965 43.3061C26.5425 43.3061 26.7621 43.2584 26.9538 43.1597C27.1378 43.0691 27.2858 42.9282 27.3768 42.7568C27.4463 42.6258 27.4798 42.4313 27.4798 42.1753L27.4802 41.9614ZM32.9377 43.6854V43.0218H33.6667V43.6854H32.9377ZM40.8802 42.427L41.5077 42.5026C41.4388 42.896 41.2636 43.2056 40.9807 43.4277C40.6979 43.651 40.3499 43.7618 39.9377 43.7618C39.4216 43.7618 39.0056 43.6085 38.6921 43.3018C38.3776 42.9952 38.2199 42.5554 38.2199 41.9812C38.2199 41.611 38.2889 41.2863 38.4234 41.008C38.5589 40.7301 38.7648 40.5214 39.0415 40.3826C39.3166 40.2435 39.6267 40.1716 39.9415 40.1739C40.3509 40.1739 40.6875 40.2688 40.9467 40.4574C41.2079 40.6459 41.3745 40.9135 41.4487 41.2609L40.8268 41.3477C40.7668 41.1175 40.662 40.944 40.5123 40.8271C40.3622 40.7108 40.1804 40.6528 39.9665 40.6528C39.6435 40.6528 39.3819 40.7576 39.1808 40.968C38.9797 41.1776 38.8781 41.51 38.8781 41.9644C38.8781 42.4252 38.9759 42.7607 39.1704 42.9703C39.3649 43.1786 39.618 43.2834 39.9306 43.2834C40.1809 43.2834 40.3915 43.2129 40.5596 43.0729C40.7277 42.9338 40.8344 42.7182 40.8802 42.427V42.427ZM45.4541 41.9679C45.4541 41.3322 45.6477 40.8606 46.0378 40.5553C46.3621 40.3019 46.7569 40.173 47.2239 40.173C47.7437 40.173 48.1673 40.3277 48.4964 40.6377C48.8255 40.947 48.9898 41.3734 48.9898 41.9185C48.9898 42.3608 48.9171 42.7083 48.7712 42.9612C48.6293 43.2115 48.4078 43.4171 48.1356 43.5514C47.8565 43.6915 47.5422 43.7637 47.2234 43.7609C46.696 43.7609 46.2691 43.6076 45.9424 43.2988C45.6171 42.9917 45.4541 42.5485 45.4541 41.9679V41.9679ZM46.1128 41.9679C46.1128 42.4072 46.2181 42.7362 46.4292 42.9552C46.6398 43.1751 46.9061 43.2842 47.2253 43.2842C47.5435 43.2842 47.807 43.1738 48.0185 42.9544C48.2287 42.7345 48.334 42.3991 48.334 41.9485C48.334 41.5242 48.2287 41.2021 48.0167 40.9831C47.8037 40.7644 47.5407 40.6554 47.2253 40.6554C46.9061 40.6554 46.6407 40.7644 46.4292 40.9822C46.2167 41.1995 46.1128 41.5289 46.1128 41.9679V41.9679ZM53.3787 43.6854V40.2529H53.9496V40.7335C54.0682 40.5654 54.2307 40.4265 54.4227 40.3294C54.6191 40.2267 54.8448 40.1748 55.0951 40.1748C55.3741 40.1748 55.6031 40.228 55.7811 40.3337C55.961 40.4398 56.0871 40.5862 56.1608 40.776C56.4606 40.3753 56.8487 40.1748 57.327 40.1748C57.7015 40.1748 57.9886 40.2701 58.1897 40.4582C58.3923 40.6463 58.4929 40.9371 58.4929 41.3288V43.6854H57.8568V41.5229C57.8568 41.2897 57.8356 41.1218 57.795 41.0196C57.7525 40.9182 57.6769 40.8349 57.5688 40.7726C57.4534 40.7084 57.3202 40.6756 57.1849 40.6781C56.9196 40.6781 56.7005 40.7589 56.5243 40.9195C56.3501 41.0797 56.2609 41.3369 56.2609 41.69V43.6854H55.6215V41.4555C55.6215 41.1961 55.5696 41.002 55.4648 40.8731C55.3604 40.7443 55.1909 40.6794 54.9529 40.6794C54.773 40.6794 54.6078 40.7228 54.4538 40.81C54.3018 40.8959 54.1899 41.0217 54.1219 41.1875C54.053 41.3541 54.0185 41.5929 54.0185 41.9056V43.6862H53.3787V43.6854V43.6854Z" fill="#fff"/>
</svg>
